<?xml version="1.0" encoding="UTF-8"?><svg id="Layer_1" xmlns="http://www.w3.org/2000/svg" viewBox="0 0 321.44 206.67"><defs><style>.cls-1{fill:#00aeef;}.cls-2{fill:#fff;}</style></defs><path class="cls-1" d="M321.43,102.18c-.02-2.57-2-4.75-4.64-5.19-9.41-1.58-12.21-3.9-15.01-3.9-4.84,0-12.48,4.21-20.05,4.21-9.36,0-11.17-1.37-17.67-9.36-9.25-11.37-11.8,9.98-28.51,9.55-24.08-.62-24.17-22-29.81-22-3.55,0-8.2,19.4-12.43,18.41-8.73-2.03-2.03-47.06-11.35-39.73-10.85,8.54-12.28,39.58-22.4,41.13-8.86,1.36-5.22-21.31-17.11-8-10.23,11.45-8.99,11.78-16.61,9.96-15.41-3.69-13.84-20.91-26.03-9.55-8.58,7.99-16.41,9.36-25.78,9.36-10.85,0-10.57-8.23-15.39-8.31-4.52-.07-6.15,7.08-13.67,8.29-.62.1-1.34.1-1.97,0-9.68-1.58-12.49-3.97-15.32-3.97-4.84,0-12.48,4.21-20.05,4.21-10.04,0-10.15,8.52-.41,8.52,7.57,0,14.13,4.21,18.96,4.21,2.81,0,7.23-2.55,17.1-4.08.59-.09,1.27-.09,1.86,0,7.59,1.12,7.61,7.98,12.35,7.97,4.84,0,6.42-8.31,16.14-8.31s16.84,1.37,23.35,9.36c9.25,11.37,12.15-5.86,28.51-9.55,8.09-1.82,6.82-1.84,14.07,9.61,8.44,13.31,9.04-7.46,19.14-7.65,10.21-.19,1.26,34.88,11.32,44.4,7.18,4.2,11.61-41.76,21.33-43.11,4-.56,2.67,17.68,8.34,17.76,7.16.1,17.88-21.28,35.51-20.79,16.74.47,13.84,20.91,26.03,9.55,8.58-7.99,10.73-9.36,20.1-9.36,7.57,0,14.13,4.21,18.96,4.21,2.75,0,7.04-2.44,16.49-3.98,2.69-.44,4.69-.65,4.67-3.26v-.6Z"/><path class="cls-2" d="M77.79,103.33C77.79,41.93,123.32,0,180.23,0c39.24,0,63.8,18.87,79.37,42.23l-25.46,13.48c-10.48-16.78-30.25-29.05-53.91-29.05-40.43,0-71.58,31.75-71.58,76.68s31.15,76.68,71.58,76.68c23.66,0,43.43-12.28,53.91-29.05l25.46,13.48c-15.87,23.36-40.14,42.23-79.37,42.23-56.91,0-102.43-41.93-102.43-103.33Z"/></svg>